<svg width="20" height="24" viewBox="0 0 20 24" fill="none" xmlns="http://www.w3.org/2000/svg">
<path fill-rule="evenodd" clip-rule="evenodd" d="M9.6208 5.50879C10.943 5.60744 12.3002 4.8368 13.1481 3.82881C13.961 2.80519 14.5178 1.41334 14.3626 0C13.1859 0.0527438 11.7152 0.819482 10.8674 1.82064C10.1175 2.70263 9.44812 4.1482 9.6208 5.50879ZM19.3053 17.5313C19.2674 17.5176 16.1554 16.3221 16.1243 12.7043C16.0974 9.70882 18.5415 8.24026 18.6892 8.15151L18.6922 8.14973C17.2875 6.08687 15.1096 5.80459 14.3432 5.78212C13.2238 5.6638 12.1248 6.10304 11.2269 6.46188C10.6573 6.68956 10.1686 6.88486 9.80706 6.88486C9.39511 6.88486 8.89227 6.68129 8.32884 6.45319C7.592 6.1549 6.75155 5.81465 5.87527 5.83291C3.88463 5.86417 2.02205 7.02453 1.00054 8.82564C-1.1065 12.4991 0.465052 17.8985 2.48479 20.8678C3.49466 22.3222 4.67526 23.9455 6.21965 23.8889C6.92055 23.8599 7.41784 23.6492 7.93151 23.4316C8.5255 23.1799 9.14141 22.919 10.1194 22.919C11.0421 22.919 11.6321 23.1718 12.198 23.4143C12.7406 23.6468 13.2612 23.8699 14.0318 23.8517C15.6548 23.8264 16.6763 22.3915 17.6503 20.9235C18.8183 19.2572 19.2859 17.6153 19.3053 17.5313Z" fill="white"/>
</svg>
