<svg width="46" height="46" viewBox="0 0 46 46" fill="none" xmlns="http://www.w3.org/2000/svg">
<path d="M0.0167236 23.8043V22.1957C0.440474 9.86572 10.5697 0 23.0029 0C35.7054 0 46.0029 10.2976 46.0029 23C46.0029 35.7024 35.7054 46 23.0029 46C10.5697 46 0.440474 36.1343 0.0167236 23.8043Z" fill="#CCCCCC"/>
<path d="M12.8583 19.9834C14.0489 18.5641 15.4768 17.8486 17.1327 17.8486C17.9859 17.8487 18.7498 18.0112 19.4344 18.335C20.1216 18.656 20.636 19.0679 20.9823 19.5674C21.3314 20.0726 21.566 20.6257 21.6932 21.2354C21.8204 21.8416 21.8837 22.7859 21.8837 24.0654V32.4316H18.1825V24.8975C18.1825 23.4021 18.1152 22.455 17.9745 22.0527C17.834 21.6479 17.5867 21.3291 17.2313 21.0947C16.8751 20.854 16.4312 20.7354 15.8954 20.7354C15.2832 20.7354 14.7317 20.8896 14.2538 21.1934C13.7659 21.4999 13.4142 21.9582 13.1923 22.5703C12.9659 23.1837 12.8539 24.0893 12.8583 25.2881L12.8534 32.4316H9.1571V12.1602H12.8583V19.9834ZM27.4266 19.9834C28.6182 18.564 30.0452 17.8487 31.701 17.8486C32.5507 17.8486 33.3195 18.0111 34.0067 18.335C34.6903 18.656 35.2042 19.068 35.5497 19.5674C35.8988 20.0727 36.1353 20.6257 36.2616 21.2354C36.3888 21.8416 36.452 22.7859 36.452 24.0654V32.4316H32.7548V24.8975C32.7548 23.4022 32.6855 22.455 32.5438 22.0527C32.4033 21.6479 32.1569 21.3291 31.7997 21.0947C31.4471 20.8539 30.9996 20.7354 30.4637 20.7354C29.8513 20.7354 29.301 20.8895 28.8221 21.1934C28.3397 21.4999 27.9872 21.9582 27.7616 22.5703C27.5396 23.1837 27.4266 24.0893 27.4266 25.2881V32.4316H23.7294V12.1602H27.4266V19.9834Z" fill="#212122"/>
</svg>
