<svg width="46" height="46" viewBox="0 0 46 46" fill="none" xmlns="http://www.w3.org/2000/svg">
<path d="M0 23.8043V22.1957C0.423751 9.86572 10.553 0 22.9862 0C35.6886 0 45.9862 10.2976 45.9862 23C45.9862 35.7024 35.6886 46 22.9862 46C10.553 46 0.423751 36.1343 0 23.8043Z" fill="#CCCCCC"/>
<path fill-rule="evenodd" clip-rule="evenodd" d="M12.8412 19.9836V12.1602H9.1405V32.4317H12.8368L12.8412 25.2881C12.8368 24.0894 12.9495 23.1838 13.1759 22.5704C13.3978 21.9582 13.7495 21.4998 14.2375 21.1932C14.7155 20.8894 15.2668 20.735 15.879 20.735C16.4149 20.735 16.8586 20.8542 17.2149 21.095C17.5702 21.3293 17.8175 21.6479 17.958 22.0527C18.0988 22.455 18.1655 23.4021 18.1655 24.8976V32.4317H21.8673V24.0659C21.8673 22.7862 21.8041 21.8418 21.6769 21.2355C21.5497 20.6258 21.3144 20.0731 20.9653 19.5678C20.6189 19.0682 20.1048 18.6561 19.4176 18.335C18.7329 18.0111 17.969 17.8488 17.1157 17.8488C15.4597 17.8488 14.0319 18.5641 12.8412 19.9836ZM27.4102 19.9836V12.1602H23.7132V32.4317H27.4102V25.2881C27.4102 24.0894 27.5229 23.1838 27.7449 22.5704C27.9705 21.9582 28.3231 21.4998 28.8057 21.1932C29.2845 20.8894 29.8347 20.735 30.4472 20.735C30.9831 20.735 31.4304 20.8542 31.783 21.095C32.1402 21.3293 32.3865 21.6479 32.5271 22.0527C32.6687 22.455 32.7382 23.4021 32.7382 24.8976V32.4317H36.4352V24.0659C36.4352 22.7862 36.3722 21.8418 36.245 21.2355C36.1187 20.6258 35.8825 20.0731 35.5334 19.5678C35.1879 19.0682 34.6739 18.6561 33.9901 18.335C33.3028 18.0111 32.5344 17.8488 31.6848 17.8488C30.0288 17.8488 28.6019 18.5641 27.4102 19.9836Z" fill="#212122"/>
</svg>
